<svg id="Layer_1" data-name="Layer 1" xmlns="http://www.w3.org/2000/svg" viewBox="0 0 500 500"><defs><style>.cls-1{fill:#348ccf;}</style></defs><title>Log out icon</title><path class="cls-1" d="M345.4,280.7c0,27.54,0,54.24,0,80.94q0,14.92,0,29.84c0,14.13-6.49,20.67-20.56,20.68q-66.31,0-132.63,0h-7.4c0,2.26,0,4.21,0,6.16,0,19.34,0,38.68,0,58,0,16.84-13.62,24.75-28.32,16.43Q88.26,454.16,20.09,415.46A27.54,27.54,0,0,0,15.77,413C2.77,408.55,0,399,0,386.14c.35-120.65.21-241.31.2-362C.21,10.65,7.1,3.67,20.52,3.67H325c13.56,0,20.33,6.67,20.35,20.36q.08,67.42,0,134.84c0,1.27-.15,2.55-.26,4.29H310.54V39.2H86.41c2.91,1.76,4.84,3,6.82,4.11C119.79,58.39,146.28,73.59,173,88.43c8.33,4.63,11.94,11,11.92,20.53q-.27,130.69-.11,261.39c0,2,0,4,0,6.34H310.35v-96Z"/><path class="cls-1" d="M381.87,197.35c0-14.79.06-28.59,0-42.4,0-5.24.65-10.08,5.93-12.66s9.46-.27,13.71,2.83q46,33.53,92.06,66.9c8.65,6.29,8.6,13.69-.12,20q-46.24,33.62-92.51,67.22c-4.11,3-8.25,5-13.24,2.38s-5.87-7.1-5.84-12.19c.09-14,0-28,0-42.86h-6.64c-28.74,0-57.48.1-86.22,0-17.39-.09-29.07-15.23-24.52-31.4,3.09-11,12.79-17.78,25.63-17.79q42.56-.05,85.11,0Z"/></svg>