<?xml version="1.0" encoding="utf-8"?>
<!-- Generator: Adobe Illustrator 21.1.0, SVG Export Plug-In . SVG Version: 6.00 Build 0)  -->
<svg version="1.1" id="Layer_1" xmlns="http://www.w3.org/2000/svg" xmlns:xlink="http://www.w3.org/1999/xlink" x="0px" y="0px"
	 viewBox="0 0 131.2 17.1" style="enable-background:new 0 0 131.2 17.1;" xml:space="preserve">
<style type="text/css">
	.st0{fill:#29ABE2;}
	.st1{fill:#FFFFFF;}
</style>
<g>
	<path class="st1" d="M128.6,9.7h-6.9c0.1-1.5,1.2-3.2,3.4-3.2C127.5,6.5,128.5,8.3,128.6,9.7 M125.4,17.1c1.9,0,3.7-0.6,4.9-1.8
		l-1.2-1.7c-0.9,0.9-2.3,1.4-3.5,1.4c-2.3,0-3.7-1.5-3.9-3.4h9.4v-0.7c0-3.8-2.3-6.6-6-6.6c-3.6,0-6.2,2.8-6.2,6.4
		C119,14.6,121.7,17.1,125.4,17.1 M114.6,9.7h-6.9c0.1-1.5,1.2-3.2,3.4-3.2C113.5,6.5,114.5,8.3,114.6,9.7 M111.3,17.1
		c1.9,0,3.7-0.6,4.9-1.8l-1.2-1.7c-0.9,0.9-2.3,1.4-3.5,1.4c-2.3,0-3.7-1.5-3.9-3.4h9.4v-0.7c0-3.8-2.3-6.6-6-6.6
		c-3.6,0-6.2,2.8-6.2,6.4C105,14.6,107.7,17.1,111.3,17.1 M102.3,0h-2.6v16.8h2.6V0z M87.6,16.8v-1.7c0.9,1.2,2.3,2,3.9,2
		c3.1,0,5.4-2.4,5.4-6.4c0-3.9-2.3-6.4-5.4-6.4c-1.5,0-2.9,0.7-3.9,2V0H85v16.8H87.6z M87.6,13.2V8.3c0.6-0.9,1.9-1.6,3.1-1.6
		c2.1,0,3.4,1.7,3.4,4c0,2.4-1.3,4.1-3.4,4.1C89.5,14.8,88.2,14.1,87.6,13.2 M76,15.3c-1.5,0-2.6-0.9-2.6-2.2c0-1.3,1.1-2.2,2.6-2.2
		c1.1,0,2.3,0.4,2.9,1.3V14C78.3,14.9,77.2,15.3,76,15.3 M81.6,16.8V8.7c0-3.3-2.4-4.4-5.1-4.4c-1.9,0-3.7,0.6-5.1,2l1.1,1.8
		c1-1.1,2.2-1.6,3.6-1.6c1.7,0,2.8,0.9,2.8,2.3v1.8c-0.9-1-2.3-1.6-4-1.6c-2,0-4.2,1.2-4.2,4c0,2.7,2.2,4,4.2,4c1.6,0,3-0.6,4-1.6
		v1.3H81.6z M66.3,9.7h-6.9c0.1-1.5,1.2-3.2,3.4-3.2C65.2,6.5,66.2,8.3,66.3,9.7 M63.1,17.1c1.9,0,3.7-0.6,4.9-1.8l-1.2-1.7
		c-0.9,0.9-2.3,1.4-3.5,1.4c-2.3,0-3.7-1.5-3.9-3.4h9.4v-0.7c0-3.8-2.3-6.6-6-6.6c-3.6,0-6.2,2.8-6.2,6.4
		C56.7,14.6,59.4,17.1,63.1,17.1 M51.6,16.8V8.5c0.5-0.9,2-1.6,3.2-1.6c0.3,0,0.6,0,0.8,0.1V4.3c-1.6,0-3,0.9-4,2.1V4.6h-2.6v12.2
		H51.6z M40,15.3c-1.5,0-2.6-0.9-2.6-2.2c0-1.3,1.1-2.2,2.6-2.2c1.1,0,2.3,0.4,2.9,1.3V14C42.2,14.9,41.1,15.3,40,15.3 M45.5,16.8
		V8.7c0-3.3-2.4-4.4-5.1-4.4c-1.9,0-3.7,0.6-5.1,2l1.1,1.8c1-1.1,2.2-1.6,3.6-1.6c1.7,0,2.8,0.9,2.8,2.3v1.8c-0.9-1-2.3-1.6-4-1.6
		c-2,0-4.2,1.2-4.2,4c0,2.7,2.2,4,4.2,4c1.6,0,3-0.6,4-1.6v1.3H45.5z M32,16.8V8.2c0-2.5-1.3-3.9-3.9-3.9c-1.9,0-3.5,1-4.3,1.9V0
		h-2.6v16.8h2.6V8.3c0.6-0.8,1.8-1.6,3.1-1.6c1.5,0,2.4,0.6,2.4,2.5v7.7H32z"/>
	<polygon class="st1" points="17.2,0 8.9,0 17.2,6.8 	"/>
	<path class="st1" d="M17.1,10.4c-0.1-0.5-0.5-1.5-1.4-2.3L5.8,0C3.7,0,1.9,0.7,0.8,2.3C0,3.5-0.2,5,0.2,6.4
		c0.1,0.5,0.5,1.5,1.4,2.3l9.9,8.1c2.1,0,3.9-0.7,4.9-2.3C17.2,13.3,17.4,11.8,17.1,10.4"/>
	<polygon class="st1" points="0,16.8 8.3,16.8 0,10 	"/>
</g>
</svg>
